<svg width="39" height="48" viewBox="0 0 39 48" fill="none" xmlns="http://www.w3.org/2000/svg">
<g clip-path="url(#clip0_669:1009)">
<path d="M20.3289 33.3195L14.6885 27.6732L22.0328 20.3289C20.0849 18.3812 17.4431 17.287 14.6885 17.287C11.9339 17.287 9.29214 18.3812 7.34425 20.3289L0 27.6732L7.34425 35.0154L12.9846 40.6558L20.3289 48C22.2741 46.0525 23.3667 43.4124 23.3667 40.6598C23.3667 37.9071 22.2741 35.2671 20.3289 33.3195Z" fill="url(#paint0_linear_669:1009)"/>
<path d="M31.0789 12.9846L25.4405 7.34425L18.0962 0C16.1486 1.94789 15.0544 4.58967 15.0544 7.34425C15.0544 10.0988 16.1486 12.7406 18.0962 14.6885L23.7426 20.3289L16.3924 27.6731C18.3402 29.6202 20.9815 30.714 23.7356 30.714C26.4897 30.714 29.1311 29.6202 31.0789 27.6731L38.4231 20.3289L31.0789 12.9846Z" fill="url(#paint1_linear_669:1009)"/>
</g>
<defs>
<linearGradient id="paint0_linear_669:1009" x1="13.3996" y1="19.7563" x2="11.7257" y2="34.1216" gradientUnits="userSpaceOnUse">
<stop stop-color="#D29171"/>
<stop offset="1" stop-color="#AE7D66"/>
</linearGradient>
<linearGradient id="paint1_linear_669:1009" x1="24.417" y1="27.328" x2="26.5338" y2="14.6386" gradientUnits="userSpaceOnUse">
<stop stop-color="#B3B3B3"/>
<stop offset="1" stop-color="#E6E6E6"/>
</linearGradient>
<clipPath id="clip0_669:1009">
<rect width="38.4231" height="48" fill="white"/>
</clipPath>
</defs>
</svg>
